<svg version="1.2" baseProfile="tiny-ps" xmlns="http://www.w3.org/2000/svg" viewBox="0 0 100 100" width="100" height="100"><title>noun_people_11347-svg</title><style>tspan { white-space:pre }.shp0 { fill: #000000 } .txt1 { font-size: 2px;fill: #000000;font-family: "' Helvetica'" } .txt2 { font-size: 6px;fill: #000000;font-weight: bold;font-family: "' Helvetica" } .txt3 { font-size: 4px;fill: #000000;font-weight: bold;font-family: "' Helvetica" } .shp4 { fill: #000000;stroke: #ffffff } .shp5 { fill: none } .txt6 { font-size: 3px;fill: #000000;font-weight: bold;font-family: "' Helvetica" } .txt7 { font-size: 2px;fill: #000000;font-weight: bold;font-family: "' Helvetica" } .txt8 { font-size: 3px;fill: #000000;font-family: "' Helvetica'" } .txt9 { font-size: 5px;fill: #000000;font-weight: bold;font-family: "' Helvetica" } </style><g ><path class="shp0" d="M-192 0L-7 0L-7 99L-192 99L-192 0Z" /><path class="shp0" d="M0 -36L100 -36L100 -6L0 -6L0 -36Z" /><text style="transform: matrix(1,0,0,1,66,-19.5)" ><tspan x="0" y="0" class="txt1">http://thenounproject.com</tspan></text><g ><text style="transform: matrix(1,0,0,1,7.166,-24.5)" ><tspan x="0" y="0" class="txt2">The Noun Project</tspan></text><text style="transform: matrix(1,0,0,1,8.286,-19.7)" ><tspan x="0" y="0" class="txt3">Icon Template</tspan></text></g><text style="transform: matrix(1,0,0,1,-178.5,10.5)" ><tspan x="0" y="0" class="txt2">Reminders</tspan></text><path class="shp4" d="M8 -14.5L18 -14.5" /><path class="shp4" d="M-179 16.5L-162 16.5" /><g ><g ><g ><path class="shp0" d="M-170.8 31.32L-162.08 31.32L-162.08 39.96L-170.8 39.96L-170.8 31.32Z" /><path fill-rule="evenodd" class="shp0" d="M-166.66 44.5L-166.66 35.42L-157.5 35.42L-157.5 44.5L-166.66 44.5ZM-157.94 44.06L-157.94 35.86L-166.22 35.86L-166.22 44.06L-157.94 44.06ZM-164.9 42.75L-164.9 37.17L-159.27 37.17L-159.27 42.75L-164.9 42.75ZM-159.71 42.31L-159.71 37.61L-164.46 37.61L-164.46 42.31L-159.71 42.31Z" /><path class="shp0" d="M-166.15 44.13L-166.29 43.99L-158.01 35.79L-157.87 35.93L-166.15 44.13Z" /></g></g></g><path class="shp5" d="M-179 58L-144 58L-144 90.5L-179 90.5L-179 58Z" /><g ><text style="transform: matrix(1,0,0,1,-179,60.13)" ><tspan x="0" y="0" class="txt6">Strokes</tspan></text><text style="transform: matrix(1,0,0,1,-179,65.13)" ><tspan x="0" y="0" class="txt1">Try to keep strokes at 4px</tspan></text><text style="transform: matrix(1,0,0,1,-179,70.13)" ><tspan x="0" y="0" class="txt1">Minimum stroke weight is 2px</tspan></text><text style="transform: matrix(1,0,0,1,-179,74.63)" ><tspan x="0" y="0" class="txt1">For thicker strokes use even </tspan></text><text style="transform: matrix(1,0,0,1,-179,77.63)" ><tspan x="0" y="0" class="txt1">numbers: 6px, 8px etc.</tspan></text><text style="transform: matrix(1,0,0,1,-179,82.13)" ><tspan x="0" y="0" class="txt7">Remember to expand strokes </tspan></text><text style="transform: matrix(1,0,0,1,-179,85.13)" ><tspan x="0" y="0" class="txt7">before saving as an SVG </tspan></text></g><path class="shp5" d="M-136.5 58L-101.5 58L-101.5 90.5L-136.5 90.5L-136.5 58Z" /><g ><text style="transform: matrix(1,0,0,1,-136.5,60.13)" ><tspan x="0" y="0" class="txt6">Size</tspan></text><text style="transform: matrix(1,0,0,1,-136.5,65.13)" ><tspan x="0" y="0" class="txt1">Cannot be wider or taller than </tspan></text><text style="transform: matrix(1,0,0,1,-136.5,68.63)" ><tspan x="0" y="0" class="txt1">100px (artboard size)</tspan></text><text style="transform: matrix(1,0,0,1,-136.5,73.63)" ><tspan x="0" y="0" class="txt1">Scale your icon to fill as much of </tspan></text><text style="transform: matrix(1,0,0,1,-136.5,76.63)" ><tspan x="0" y="0" class="txt1">the artboard as possible</tspan></text></g><path class="shp5" d="M-94 58L-59 58L-59 90.5L-94 90.5L-94 58Z" /><g ><text style="transform: matrix(1,0,0,1,-94,60.13)" ><tspan x="0" y="0" class="txt6">Ungroup</tspan></text><text style="transform: matrix(1,0,0,1,-94,65.13)" ><tspan x="0" y="0" class="txt1">If your design has more than one </tspan></text><text style="transform: matrix(1,0,0,1,-94,68.13)" ><tspan x="0" y="0" class="txt1">shape, make sure to ungroup</tspan></text></g><path class="shp5" d="M-50 58L-15 58L-15 90.5L-50 90.5L-50 58Z" /><g ><text style="transform: matrix(1,0,0,1,-50,60.13)" ><tspan x="0" y="0" class="txt6">Save as</tspan></text><text style="transform: matrix(1,0,0,1,-50,65.13)" class="SVG and make sure “Use " ><tspan x="0" y="0" class="txt1">Save as .SVG and make sure “Use </tspan></text><text style="transform: matrix(1,0,0,1,-50,68.13)" ><tspan x="0" y="0" class="txt1">Artboards” is checked</tspan></text></g><text style="transform: matrix(1.007,0,0,1,-125.542,30.593)" ><tspan x="0" y="0" class="txt8">100px</tspan></text><text style="transform: matrix(1.007,0,0,1,-41,39)" ><tspan x="0" y="0" class="txt9">.SVG</tspan></text><path class="shp0" d="M-126.51 34.81L-116.25 34.81L-116.25 45L-126.51 45L-126.51 34.81Z" /><path class="shp0" d="M-126.48 31.77L-125.95 31.77L-125.95 34.1L-126.48 34.1L-126.48 31.77Z" /><path class="shp0" d="M-116.81 31.77L-116.29 31.77L-116.29 34.1L-116.81 34.1L-116.81 31.77Z" /><path class="shp0" d="M-127 32.34L-115.77 32.34L-115.77 32.91L-127 32.91L-127 32.34Z" /><g ><path class="shp0" d="M-83.81 33.84L-73.5 33.84L-73.5 44L-83.81 44L-83.81 33.84Z" /><path class="shp0" d="M-76.81 28.71L-73.5 28.71L-73.5 31.97L-76.81 31.97L-76.81 28.71Z" /></g><path class="shp4" d="M-178.5 22.5L-148.5 22.5L-148.5 52.5L-178.5 52.5L-178.5 22.5Z" /><path class="shp4" d="M-136.5 22.5L-106.5 22.5L-106.5 52.5L-136.5 52.5L-136.5 22.5Z" /><path class="shp4" d="M-93.5 22.5L-63.5 22.5L-63.5 52.5L-93.5 52.5L-93.5 22.5Z" /><path class="shp4" d="M-49.5 22.5L-19.5 22.5L-19.5 52.5L-49.5 52.5L-49.5 22.5Z" /></g><g ><path class="shp0" d="M80.5 22.06C76.84 22.06 73.88 19.1 73.88 15.44C73.88 11.77 76.84 8.81 80.5 8.81C84.17 8.81 87.13 11.77 87.13 15.44C87.13 19.1 84.17 22.06 80.5 22.06Z" /><path class="shp0" d="M72.67 86.29C72.67 88.34 74.34 90 76.39 90C78.44 90 80.1 88.34 80.1 86.29L80.1 55.13L81.76 55.13L81.75 86.29C81.75 88.34 83.41 90 85.46 90C87.51 90 89.17 88.34 89.17 86.29L89.19 32.58L90.82 32.58L90.82 52.37C90.82 56.35 96.01 56.35 96 52.37L96 32.15C96 27.75 93.42 23.44 88.27 23.44L73.42 23.44C68.73 23.44 65.79 27.26 65.79 32.03L65.79 52.37C65.79 56.32 71.02 56.32 71.02 52.37L71.02 32.58L72.68 32.58L72.67 86.29Z" /><path class="shp0" d="M49.5 22.06C45.84 22.06 42.88 19.1 42.88 15.44C42.88 11.77 45.84 8.81 49.5 8.81C53.17 8.81 56.13 11.77 56.13 15.44C56.13 19.1 53.17 22.06 49.5 22.06Z" /><path class="shp0" d="M41.67 86.29C41.67 88.34 43.34 90 45.38 90C47.44 90 49.1 88.34 49.1 86.29L49.1 55.13L50.76 55.13L50.75 86.29C50.75 88.34 52.41 90 54.46 90C56.51 90 58.17 88.34 58.17 86.29L58.19 32.58L59.82 32.58L59.82 52.37C59.82 56.35 65.01 56.35 65 52.37L65 32.15C65 27.75 62.42 23.44 57.27 23.44L42.42 23.44C37.73 23.44 34.79 27.26 34.79 32.03L34.79 52.37C34.79 56.32 40.02 56.32 40.02 52.37L40.02 32.58L41.68 32.58L41.67 86.29Z" /><path class="shp0" d="M18.5 22.06C14.84 22.06 11.88 19.1 11.88 15.44C11.88 11.77 14.84 8.81 18.5 8.81C22.17 8.81 25.13 11.77 25.13 15.44C25.13 19.1 22.17 22.06 18.5 22.06Z" /><path class="shp0" d="M10.67 86.29C10.67 88.34 12.34 90 14.38 90C16.44 90 18.1 88.34 18.1 86.29L18.1 55.13L19.76 55.13L19.75 86.29C19.75 88.34 21.41 90 23.46 90C25.51 90 27.17 88.34 27.17 86.29L27.19 32.58L28.82 32.58L28.82 52.37C28.82 56.35 34.01 56.35 34 52.37L34 32.15C34 27.75 31.41 23.44 26.27 23.44L11.42 23.44C6.73 23.44 3.79 27.26 3.79 32.03L3.79 52.37C3.79 56.32 9.01 56.32 9.01 52.37L9.01 32.58L10.68 32.58L10.67 86.29Z" /></g></svg>